<svg width="360" height="64" viewBox="0 0 360 64" fill="none" xmlns="http://www.w3.org/2000/svg">
<g clip-path="url(#clip0_1649_6518)">
<path d="M115.169 27.2456C114.261 28.9499 112.81 30.3404 110.815 31.4069C108.821 32.4768 106.263 33.0134 103.144 33.0134H96.286V48.3596H90.0828V10.5393H103.144C106.047 10.5393 108.504 11.0388 110.518 12.0344C112.533 13.0334 114.035 14.3834 115.034 16.0878C116.03 17.7922 116.529 19.6991 116.529 21.8017C116.529 23.7254 116.077 25.5378 115.169 27.2422V27.2456ZM108.423 26.3478C109.584 25.2779 110.164 23.7626 110.164 21.8051C110.164 17.6707 107.825 15.6018 103.144 15.6018H96.286V27.9543H103.144C105.503 27.9543 107.262 27.4211 108.423 26.3478Z" fill="#002C6B"/>
<path d="M130.34 19.1656C131.845 18.3151 133.63 17.8865 135.699 17.8865V24.3091H134.12C131.69 24.3091 129.847 24.9267 128.595 26.1586C127.343 27.3939 126.718 29.5336 126.718 32.5812V48.3627H120.515V18.3758H126.718V22.7296C127.626 21.2075 128.831 20.0195 130.336 19.1656H130.34Z" fill="#002C6B"/>
<path d="M144.872 46.9188C142.587 45.6329 140.792 43.8172 139.486 41.4783C138.18 39.1394 137.528 36.4259 137.528 33.3445C137.528 30.2632 138.2 27.5935 139.543 25.2378C140.886 22.8787 142.716 21.0663 145.038 19.7973C147.36 18.5283 149.952 17.8938 152.82 17.8938C155.689 17.8938 158.281 18.5283 160.603 19.7973C162.925 21.0663 164.758 22.882 166.098 25.2378C167.441 27.5969 168.113 30.2969 168.113 33.3445C168.113 36.3922 167.424 39.0956 166.044 41.4513C164.663 43.8104 162.787 45.6329 160.411 46.9188C158.035 48.208 155.412 48.8493 152.547 48.8493C149.682 48.8493 147.161 48.2047 144.876 46.9188H144.872ZM157.036 42.3221C158.433 41.5593 159.567 40.4185 160.438 38.893C161.309 37.3709 161.744 35.518 161.744 33.3412C161.744 31.1643 161.325 29.3249 160.492 27.8163C159.658 26.311 158.551 25.177 157.171 24.4143C155.79 23.6515 154.305 23.2702 152.709 23.2702C151.113 23.2702 149.634 23.6515 148.274 24.4143C146.914 25.177 145.834 26.311 145.038 27.8163C144.238 29.3215 143.84 31.1643 143.84 33.3412C143.84 36.571 144.663 39.0652 146.317 40.8235C147.967 42.5819 150.043 43.4628 152.547 43.4628C154.143 43.4628 155.639 43.0814 157.036 42.3187V42.3221Z" fill="#002C6B"/>
<path d="M183.567 19.3006C185.38 18.359 187.432 17.8865 189.716 17.8865C192.329 17.8865 194.715 18.5311 196.871 19.817C199.028 21.1062 200.726 22.9119 201.961 25.2305C203.193 27.5525 203.81 30.2187 203.81 33.2292C203.81 36.2397 203.193 38.933 201.961 41.309C200.726 43.685 199.031 45.5345 196.871 46.8609C194.711 48.1872 192.329 48.8487 189.716 48.8487C187.432 48.8487 185.4 48.3864 183.621 47.4616C181.843 46.5369 180.391 45.386 179.267 44.0056V62.6153H173.064V18.3758H179.267V22.7836C180.32 21.4066 181.751 20.2456 183.567 19.3006ZM196.22 27.8697C195.366 26.3645 194.242 25.2237 192.845 24.4407C191.448 23.6611 189.953 23.2696 188.356 23.2696C186.76 23.2696 185.319 23.6678 183.922 24.4677C182.524 25.2676 181.4 26.4252 180.547 27.9507C179.693 29.4728 179.267 31.2717 179.267 33.3372C179.267 35.4027 179.693 37.2117 180.547 38.7507C181.397 40.2931 182.524 41.4642 183.922 42.2607C185.319 43.0606 186.797 43.4588 188.356 43.4588C189.916 43.4588 191.448 43.0505 192.845 42.2337C194.242 41.417 195.366 40.229 196.22 38.6697C197.071 37.1105 197.499 35.2947 197.499 33.2292C197.499 31.1637 197.074 29.375 196.22 27.8697Z" fill="#002C6B"/>
<path d="M209.801 19.4091C211.522 16.4695 213.864 14.1779 216.821 12.5241C219.777 10.8738 223.014 10.0469 226.534 10.0469C230.56 10.0469 234.145 11.0357 237.28 13.0135C240.419 14.9912 242.693 17.7925 244.108 21.4206H236.652C235.673 19.426 234.313 17.9376 232.572 16.9589C230.83 15.9801 228.819 15.4907 226.531 15.4907C224.026 15.4907 221.795 16.0544 219.838 17.1782C217.88 18.3021 216.345 19.9188 215.241 22.0214C214.134 24.124 213.581 26.5743 213.581 29.3687C213.581 32.1632 214.134 34.6101 215.241 36.7161C216.348 38.8188 217.88 40.4421 219.838 41.5863C221.795 42.7304 224.026 43.3008 226.531 43.3008C228.815 43.3008 230.83 42.8114 232.572 41.8326C234.313 40.8539 235.673 39.3655 236.652 37.3709H244.108C242.693 40.999 240.415 43.7935 237.28 45.751C234.141 47.7085 230.56 48.6906 226.534 48.6906C222.977 48.6906 219.733 47.8671 216.794 46.2134C213.854 44.563 211.525 42.268 209.801 39.3284C208.076 36.3888 207.215 33.0711 207.215 29.3687C207.215 25.6664 208.076 22.3488 209.801 19.4091Z" fill="#E21B3D"/>
<path d="M270.625 19.355C272.421 20.3337 273.835 21.785 274.871 23.7087C275.904 25.6325 276.424 27.9545 276.424 30.6747V48.3597H270.274V31.5995C270.274 28.9163 269.603 26.8576 268.26 25.4232C266.916 23.9922 265.084 23.2733 262.765 23.2733C260.446 23.2733 258.604 23.9888 257.24 25.4232C255.88 26.8576 255.198 28.9163 255.198 31.5995V48.3597H248.995V7.50195H255.198V21.8592C256.251 20.5902 257.585 19.6115 259.198 18.9196C260.811 18.2311 262.579 17.8868 264.503 17.8868C266.788 17.8868 268.83 18.3762 270.625 19.355Z" fill="#E21B3D"/>
<path d="M282.917 25.2339C284.169 22.9119 285.874 21.1063 288.034 19.8204C290.19 18.5345 292.576 17.8899 295.189 17.8899C297.548 17.8899 299.603 18.3523 301.365 19.277C303.123 20.2018 304.531 21.3526 305.584 22.733V18.3793H311.841V48.3628H305.584V43.901C304.531 45.3151 303.1 46.4964 301.284 47.438C299.468 48.3796 297.403 48.8521 295.081 48.8521C292.505 48.8521 290.146 48.1906 288.007 46.8643C285.867 45.5413 284.169 43.6918 282.917 41.3124C281.665 38.9364 281.041 36.2431 281.041 33.2326C281.041 30.2221 281.665 27.5559 282.917 25.2339ZM304.301 27.9541C303.447 26.432 302.333 25.271 300.953 24.4711C299.573 23.6746 298.088 23.273 296.491 23.273C294.895 23.273 293.407 23.6645 292.03 24.4441C290.649 25.2238 289.535 26.3679 288.682 27.8731C287.828 29.3784 287.402 31.1638 287.402 33.2326C287.402 35.3015 287.828 37.1139 288.682 38.6731C289.532 40.2324 290.659 41.4204 292.057 42.2371C293.454 43.0539 294.932 43.4623 296.491 43.4623C298.051 43.4623 299.573 43.064 300.953 42.2641C302.33 41.4676 303.447 40.2965 304.301 38.7541C305.152 37.2118 305.58 35.4061 305.58 33.3406C305.58 31.2751 305.155 29.4763 304.301 27.9541Z" fill="#E21B3D"/>
<path d="M318.938 13.2596C318.175 12.4969 317.794 11.5552 317.794 10.4314C317.794 9.30748 318.175 8.36248 318.938 7.60311C319.701 6.84036 320.642 6.45898 321.766 6.45898C322.89 6.45898 323.781 6.84036 324.54 7.60311C325.303 8.36586 325.684 9.30748 325.684 10.4314C325.684 11.5552 325.303 12.5002 324.54 13.2596C323.778 14.0224 322.853 14.4037 321.766 14.4037C320.679 14.4037 319.697 14.0224 318.938 13.2596ZM324.814 18.3761V48.3596H318.61V18.3761H324.814Z" fill="#E21B3D"/>
<path d="M353.09 19.3546C354.96 20.3333 356.418 21.7846 357.471 23.7083C358.524 25.6321 359.047 27.9541 359.047 30.6743V48.3593H352.897V31.5991C352.897 28.916 352.226 26.8572 350.883 25.4229C349.539 23.9919 347.707 23.273 345.388 23.273C343.069 23.273 341.227 23.9885 339.863 25.4229C338.503 26.8572 337.821 28.916 337.821 31.5991V48.3593H331.618V18.3758H337.821V21.8048C338.837 20.573 340.133 19.6111 341.713 18.9192C343.292 18.2307 344.97 17.8865 346.745 17.8865C349.104 17.8865 351.217 18.3758 353.083 19.3546H353.09Z" fill="#E21B3D"/>
<path d="M18.4076 45.6835C17.979 47.7727 17.8879 49.6897 18.1241 51.3569C16.1734 51.6505 14.307 51.7147 12.5621 51.529C12.3799 49.7842 12.4339 47.9144 12.7343 45.9637C14.4049 46.1999 16.3185 46.1088 18.411 45.6802L18.4076 45.6835Z" fill="#E21B3D"/>
<path d="M26.8186 21.0962L30.737 25.0146C25.3134 30.4382 21.2802 36.5874 19.2924 42.4498C18.7996 42.5882 18.3035 42.7063 17.8141 42.8076C16.1401 43.1484 14.6247 43.2429 13.3186 43.0809C15.1445 35.9934 19.7885 28.1263 26.8186 21.0962Z" fill="#E21B3D"/>
<path d="M32.8363 57.3812C39.0092 55.5351 45.5735 51.3501 51.3245 45.5991L55.2429 49.5175C41.4054 63.355 24.3245 67.9517 16.3562 59.9834C14.8408 58.468 13.7777 56.6219 13.1499 54.5294C14.9859 54.6441 16.9265 54.5327 18.9583 54.1986C19.3025 54.9074 19.7447 55.5385 20.2745 56.0684C22.7552 58.549 27.335 59.0316 32.8363 57.3846V57.3812Z" fill="#E21B3D"/>
<path d="M8.02242 43.8104C9.17667 44.9647 10.7899 45.6903 12.7305 45.9637C14.4012 46.1999 16.3148 46.1088 18.4073 45.6802C19.116 45.5317 19.8417 45.3528 20.5842 45.13C26.7537 43.2805 33.3214 39.0955 39.0724 33.3445L42.9908 37.2629C34.9887 45.265 25.9065 50.1757 18.1204 51.3535C16.1697 51.6472 14.3033 51.7113 12.5584 51.5257C9.21717 51.178 6.30792 49.9327 4.10404 47.7254C-3.86433 39.7638 0.729043 22.6795 14.5665 8.84204L18.4849 12.7604C12.7339 18.5114 8.54892 25.0758 6.70279 31.2487C5.05917 36.7499 5.53842 41.3264 8.02242 43.8104Z" fill="#E21B3D"/>
<path d="M19.2953 42.447C19.1772 42.8014 19.0625 43.1524 18.9578 43.5034C18.9005 43.6991 18.8498 43.8983 18.7925 44.0906V44.0974C18.644 44.634 18.5157 45.1639 18.4077 45.6836C16.3152 46.1123 14.4016 46.2034 12.731 45.9671C12.8018 45.4946 12.893 45.012 12.9908 44.5328C12.9908 44.5328 12.9908 44.526 12.9908 44.5226C13.0853 44.0535 13.2001 43.5776 13.3182 43.095C13.3182 43.0883 13.3182 43.0883 13.3182 43.0815C14.6277 43.2435 16.1397 43.149 17.8137 42.8081C18.3031 42.7069 18.7992 42.5854 19.292 42.4504L19.2953 42.447Z" fill="#C40C34"/>
<path d="M57.5305 18.8045C57.9591 16.7154 58.0502 14.7984 57.814 13.1312C59.7647 12.8375 61.6311 12.7734 63.376 12.959C63.5582 14.7039 63.5042 16.5737 63.2038 18.5244C61.5332 18.2882 59.6196 18.3793 57.5271 18.8079L57.5305 18.8045Z" fill="#00295B"/>
<path d="M49.1166 43.3919L45.1982 39.4735C50.6219 34.0499 54.655 27.9006 56.6429 22.0383C57.1356 21.8999 57.6317 21.7818 58.1211 21.6805C59.7951 21.3396 61.3105 21.2451 62.6166 21.4071C60.7907 28.4946 56.1467 36.3618 49.1166 43.3919Z" fill="#002C6B"/>
<path d="M43.0993 7.10719C36.9264 8.95332 30.362 13.1383 24.611 18.8893L20.6926 14.9709C34.5301 1.13344 51.611 -3.46668 59.5794 4.50507C61.0948 6.02044 62.1579 7.86657 62.7856 9.95907C60.9496 9.84432 59.009 9.95569 56.9772 10.2898C56.633 9.58107 56.1909 8.94994 55.661 8.42007C53.1804 5.93944 48.6005 5.45682 43.0993 7.10382V7.10719Z" fill="#002C6B"/>
<path d="M67.9151 20.6743C66.7609 19.52 65.1477 18.7944 63.207 18.521C61.5364 18.2848 59.6228 18.3759 57.5303 18.8045C56.8215 18.953 56.0959 19.1319 55.3534 19.3547C49.1839 21.2042 42.6162 25.3892 36.8652 31.1402L32.9468 27.2218C40.9489 19.2197 50.031 14.309 57.8172 13.1312C59.7679 12.8375 61.6343 12.7734 63.3792 12.959C66.7204 13.3067 69.6297 14.552 71.8335 16.7593C79.8019 24.7277 75.2085 41.8085 61.371 55.646L57.4527 51.7277C63.2037 45.9767 67.3887 39.4123 69.2348 33.2394C70.8784 27.7382 70.3992 23.1617 67.9151 20.6777V20.6743Z" fill="#002C6B"/>
<path d="M56.6429 22.0416C56.7611 21.6872 56.8758 21.3362 56.9804 20.9852C57.0378 20.7894 57.0884 20.5903 57.1458 20.3979V20.3912C57.2943 19.8546 57.4226 19.3247 57.5306 18.8049C59.6231 18.3763 61.5367 18.2852 63.2073 18.5214C63.1364 18.9939 63.0453 19.4766 62.9474 19.9558C62.9474 19.9558 62.9474 19.9626 62.9474 19.9659C62.8529 20.4351 62.7382 20.9109 62.6201 21.3936C62.6201 21.4003 62.6201 21.4003 62.6201 21.4071C61.3106 21.2451 59.7986 21.3396 58.1246 21.6804C57.6352 21.7817 57.1391 21.9032 56.6463 22.0382L56.6429 22.0416Z" fill="#001830"/>
</g>
<defs>
<clipPath id="clip0_1649_6518">
<rect width="358.85" height="63.288" fill="white" transform="translate(0.199951 0.600098)"/>
</clipPath>
</defs>
</svg>
